<svg xmlns="http://www.w3.org/2000/svg" width="1200" height="630" viewBox="0 0 1200 630" role="img" aria-labelledby="title desc">
  <title id="title">SmartCotton Open Graph placeholder</title>
  <desc id="desc">SmartCotton title over cotton-inspired research field artwork.</desc>
  <rect width="1200" height="630" fill="#f8faf5"/>
  <rect y="420" width="1200" height="210" fill="#5d3a22"/>
  <path d="M0 410c160-61 300-68 438-31 126 34 256 13 390-32 146-48 263-34 372 28v86H0z" fill="#c4d7b3"/>
  <text x="90" y="190" fill="#21331a" font-family="Georgia, serif" font-size="88" font-weight="700">SmartCotton</text>
  <text x="96" y="255" fill="#5d3a22" font-family="Arial, sans-serif" font-size="38" font-weight="700">Renewing American Cotton</text>
  <text x="98" y="315" fill="#435f32" font-family="Arial, sans-serif" font-size="25">Regenerative systems · Soil health · Precision agriculture</text>
  <g fill="#fff">
    <circle cx="910" cy="180" r="38"/><circle cx="858" cy="207" r="34"/><circle cx="962" cy="212" r="35"/><circle cx="904" cy="249" r="30"/>
  </g>
  <path d="M130 575C283 481 412 424 553 373M375 605C500 496 633 418 810 352M670 620C733 517 844 434 1040 375" stroke="#d7b98f" stroke-width="10" stroke-linecap="round"/>
</svg>
